<?xml version="1.0" encoding="utf-8"?>
<!-- Generator: Adobe Illustrator 21.0.0, SVG Export Plug-In . SVG Version: 6.00 Build 0)  -->
<svg version="1.1" id="Capa_1" xmlns="http://www.w3.org/2000/svg" xmlns:xlink="http://www.w3.org/1999/xlink" x="0px" y="0px"
	 viewBox="0 0 387.8 389.6" style="enable-background:new 0 0 387.8 389.6;" xml:space="preserve">
<style type="text/css">
	.st0{fill:#EBEBEB;}
	.st1{fill:#E0E0E0;}
	.st2{fill:#F5F5F5;}
	.st3{fill:#FFFFFF;}
	.st4{fill:#F0F0F0;}
	.st5{fill:#E6E6E6;}
	.st6{fill:#FAFAFA;}
	.st7{fill:#258C8C;}
	.st8{opacity:0.2;enable-background:new    ;}
	.st9{opacity:0.2;fill:#FFFFFF;enable-background:new    ;}
	.st10{opacity:0.5;fill:#FFFFFF;enable-background:new    ;}
	.st11{opacity:0.1;enable-background:new    ;}
	.st12{opacity:0.3;enable-background:new    ;}
	.st13{opacity:0.4;enable-background:new    ;}
	.st14{fill:#263238;}
	.st15{fill:#ED847E;}
	.st16{fill:#FFC3BD;}
	.st17{opacity:0.3;}
</style>
<title>Recurso 1</title>
<g id="Character">
	<rect x="35.9" y="200.8" class="st0" width="126.4" height="8.9"/>
	<rect x="107.4" y="200.8" class="st1" width="55" height="8.9"/>
	<rect x="35.9" y="209.7" class="st0" width="18.7" height="87.6"/>
	<polygon class="st1" points="54.6,218.8 35.9,212.4 35.9,209.7 54.6,209.7 	"/>
	<rect x="143.7" y="209.7" class="st1" width="18.7" height="87.6"/>
	<rect x="107.4" y="209.7" class="st0" width="18.7" height="87.6"/>
	<polygon class="st1" points="126,218.8 107.4,212.4 107.4,209.7 126,209.7 	"/>
	<rect x="72.2" y="209.7" class="st1" width="18.7" height="87.6"/>
	<rect x="14.9" y="2.1" class="st0" width="159.3" height="135.7"/>
	<rect x="174.2" y="2.1" class="st1" width="1.8" height="135.7"/>
	<rect x="20.9" y="8.1" class="st2" width="147.3" height="123.7"/>
	<path class="st3" d="M92.8,113c9-30,11.5-74.3,30.6-68.1s-5.9,71.5-5.9,71.5L92.8,113z"/>
	<path class="st3" d="M108.2,114.5C99.1,71,101.4,13.3,72.9,14.6s0,101.8,0,101.8L108.2,114.5z"/>
	<path class="st0" d="M128.3,109.6H66c-2.6-0.1-4.9,2-5,4.6c-1.3,28.7,3.4,58,12.2,86.6H121c8.8-28.6,13.4-57.9,12.2-86.6
		C133.1,111.6,130.9,109.6,128.3,109.6z"/>
	<rect x="266.6" y="17.2" class="st1" width="3.5" height="280.1"/>
	<rect x="349.1" y="17.2" class="st1" width="3.5" height="280.1"/>
	<rect x="241.7" y="17.2" class="st0" width="3.5" height="280.1"/>
	<rect x="324.2" y="17.2" class="st0" width="3.5" height="280.1"/>
	<rect x="241.7" y="15.3" class="st0" width="110.9" height="3.8"/>
	<rect x="241.7" y="83.9" class="st0" width="110.9" height="3.8"/>
	<rect x="241.7" y="152.5" class="st0" width="110.9" height="3.8"/>
	<rect x="241.7" y="221.1" class="st0" width="110.9" height="3.8"/>
	<rect x="241.7" y="289.7" class="st0" width="110.9" height="3.8"/>
	<rect x="327.7" y="15.3" class="st1" width="24.9" height="3.8"/>
	<rect x="327.7" y="83.9" class="st1" width="24.9" height="3.8"/>
	<rect x="327.7" y="152.5" class="st1" width="24.9" height="3.8"/>
	<rect x="327.7" y="221.1" class="st1" width="24.9" height="3.8"/>
	<rect x="327.7" y="289.7" class="st1" width="24.9" height="3.8"/>
	<path class="st4" d="M286.4,38.7v-5.4h-13.3v5.4c0,3.5-2.9,6.3-6.4,6.3l0,0c-3.5,0-6.4,2.9-6.4,6.4v32.5h38.9V51.4
		c0-3.5-2.8-6.4-6.3-6.4c0,0,0,0-0.1,0l0,0C289.3,45,286.4,42.2,286.4,38.7z"/>
	<rect x="255.6" y="130.2" class="st4" width="58.4" height="22.3"/>
	<rect x="314" y="130.2" class="st5" width="10.2" height="22.3"/>
	<rect x="314" y="140.1" class="st0" width="10.2" height="2.5"/>
	<rect x="255.6" y="140.1" class="st2" width="58.4" height="2.5"/>
	<rect x="252.7" y="250.3" class="st4" width="45.6" height="39.4"/>
	<rect x="298.4" y="250.2" class="st5" width="7.9" height="39.4"/>
	<rect x="298.4" y="267.8" class="st0" width="7.9" height="4.4"/>
	<rect x="252.7" y="267.8" class="st2" width="45.6" height="4.4"/>
	<rect x="298.4" y="263.2" class="st0" width="7.9" height="1.5"/>
	<rect x="252.7" y="263.2" class="st2" width="45.6" height="1.5"/>
	<rect x="255.6" y="181" class="st4" width="8.3" height="40.1"/>
	<rect x="255.6" y="195.3" class="st6" width="8.3" height="11.5"/>
	<rect x="263.9" y="181" class="st5" width="28.1" height="40.1"/>
	<rect x="267.3" y="175.8" class="st0" width="9.3" height="45.3"/>
	<rect x="267.3" y="190.2" class="st6" width="9.3" height="7"/>
	<rect x="267.3" y="201.9" class="st6" width="9.3" height="7"/>
	<rect x="276.6" y="175.8" class="st1" width="31.7" height="45.3"/>
	<rect x="282" y="181" class="st4" width="5" height="40.1"/>
	<rect x="282.8" y="186.1" class="st6" width="3.3" height="29.9"/>
	<rect x="287" y="181" class="st5" width="17.1" height="40.1"/>
	<rect x="294.8" y="178.9" class="st0" width="5.7" height="42.2"/>
	<rect x="294.8" y="192.3" class="st6" width="5.7" height="6.5"/>
	<rect x="294.8" y="203.1" class="st6" width="5.7" height="6.5"/>
	<rect x="300.4" y="178.9" class="st1" width="19.3" height="42.2"/>
	<ellipse transform="matrix(0.7071 -0.7071 0.7071 0.7071 1.3915 238.8789)" class="st2" cx="289" cy="117.8" rx="12.4" ry="12.4"/>
	<ellipse transform="matrix(0.9871 -0.1602 0.1602 0.9871 -15.565 50.0898)" class="st0" cx="302.8" cy="121.6" rx="8.6" ry="8.6"/>
	<ellipse id="_Path_" class="st2" cx="193.9" cy="331.2" rx="193.9" ry="11.3"/>
	<path class="st7" d="M70,253.6h128.4l0,0V320c0,3.6-2.9,6.5-6.5,6.5l0,0H76.5c-3.6,0-6.5-2.9-6.5-6.5l0,0V253.6L70,253.6z"/>
	<path class="st7" d="M70,253.6h90.9l-11.2-14.3c-1.2-1.6-4.3-2.8-6.8-2.8H61.2c-2.5,0-3.6,1.3-2.4,2.8L70,253.6z"/>
	<path class="st8" d="M70,253.6h90.9l-11.2-14.3c-1.2-1.6-4.3-2.8-6.8-2.8H61.2c-2.5,0-3.6,1.3-2.4,2.8L70,253.6z"/>
	<path class="st7" d="M198.4,253.6h-90.9l11.2-9.3c1.2-1,4.3-1.9,6.8-1.9h81.7c2.5,0,3.6,0.8,2.4,1.9L198.4,253.6z"/>
	<path class="st9" d="M107.6,253.6h90.9l0,0V320c0,3.6-2.9,6.5-6.5,6.5l0,0h-78c-3.6,0-6.5-2.9-6.5-6.5l0,0L107.6,253.6L107.6,253.6
		z"/>
	<polygon class="st10" points="81.3,253.6 81.3,299.1 84.4,296.6 86.6,299.1 88.6,296.4 90.5,299.1 93.3,297 96.3,299.1 96.3,253.6 
			"/>
	<path class="st7" d="M158.4,189.8l53.3-66.6l-70.9-59.6l-47,53.9l-7,13.5c-1.4,1.5-1.3,3.9,0.3,5.3c0.1,0.1,0.1,0.1,0.2,0.2
		l64,53.7C153.3,192.1,156.5,191.9,158.4,189.8z"/>
	<polygon class="st10" points="121.8,140.7 114.2,153.1 117.2,153.7 118.3,156.6 120.3,156.7 121.3,159.2 123.8,159.9 125.7,163 
		133.4,150.6 	"/>
	<polygon class="st11" points="209.3,121.3 161.5,174.6 93.7,117.6 140.7,63.7 	"/>
	<polygon class="st7" points="209.3,121.3 161.5,174.6 181.3,176.1 228.4,122.1 	"/>
	<polygon class="st12" points="209.3,121.3 161.5,174.6 181.3,176.1 228.4,122.1 	"/>
	<polygon class="st7" points="121.7,62.8 73.9,116.2 93.7,117.6 140.7,63.7 	"/>
	<polygon class="st13" points="121.7,62.8 73.9,116.2 93.7,117.6 140.7,63.7 	"/>
	<polygon class="st11" points="194.6,137.7 209.3,121.3 140.7,63.7 131.9,84.8 	"/>
	<polygon class="st8" points="93.7,117.6 140.7,63.7 131.9,84.8 98.8,121.9 	"/>
	<path class="st14" d="M225.9,21c0.2,0.6,0,1.3-0.4,1.4s-0.9-0.3-1.1-1s0-1.3,0.4-1.4S225.7,20.3,225.9,21z"/>
	<path class="st15" d="M226,22.2c-0.2,2.2-0.7,4.4-1.5,6.4c1.1,0.4,2.3,0.3,3.3-0.3L226,22.2z"/>
	<path class="st14" d="M227.2,16.7c0.1,0,0.2-0.1,0.2-0.2c0.1-0.2,0-0.4-0.2-0.5c0,0,0,0,0,0c-1.2-0.5-2.5-0.3-3.6,0.4
		c-0.2,0.1-0.2,0.4-0.1,0.5c0,0,0,0,0,0c0.1,0.2,0.4,0.2,0.6,0.1l0,0c0.8-0.5,1.9-0.7,2.8-0.3C227,16.7,227.1,16.7,227.2,16.7z"/>
	<path class="st16" d="M248.1,25.2c0.4,5.3,1.8,15,4.9,17.2c0,0-0.7,6.4-12,8c-12.3,1.8-6.8-5.3-6.8-5.3c6.5-2.6,5.6-7.6,3.7-12.1
		l4.8-5.5C244.5,25.6,247.9,22.5,248.1,25.2z"/>
	<path class="st3" d="M257,45c1-0.9-1-4.5-2.2-5c-3.2-1.3-16.4,0-21.4,4.2c-0.8,1.4-1,3.1-0.4,4.7L257,45z"/>
	<path class="st7" d="M299,312.4c-0.7,0.3-1.4,0.3-2.1,0.1c-0.3-0.2-0.4-0.6-0.3-0.9c0.1-0.3,0.2-0.5,0.5-0.6
		c1.1-0.6,3.8,0.2,3.9,0.2c0.1,0,0.1,0.1,0.1,0.2c0,0.1,0,0.2-0.1,0.2C300.4,311.8,299.7,312.1,299,312.4z M297.5,311.1
		c-0.1,0-0.2,0.1-0.2,0.1c-0.1,0.1-0.2,0.2-0.3,0.4c-0.1,0.4,0.1,0.5,0.1,0.5c0.5,0.3,2.1-0.1,3.2-0.7
		C299.5,311.1,298.5,311,297.5,311.1L297.5,311.1z"/>
	<path class="st7" d="M301,311.5h-0.1c-1-0.2-3.1-1.5-3.2-2.4c0-0.3,0.2-0.6,0.5-0.7c0.3-0.1,0.6-0.1,0.9,0c1.2,0.5,2.1,2.7,2.1,2.8
		c0,0.1,0,0.1,0,0.2C301.1,311.5,301,311.5,301,311.5z M298.4,308.8L298.4,308.8c-0.3,0.1-0.3,0.2-0.3,0.3c0.1,0.5,1.5,1.6,2.5,1.9
		c-0.3-0.6-1-1.9-1.7-2.2C298.7,308.7,298.5,308.7,298.4,308.8L298.4,308.8z"/>
	<path class="st7" d="M240.4,323.1c-1.1,0-2.1-0.1-2.4-0.6c-0.2-0.3-0.2-0.6,0-0.9c0.1-0.2,0.4-0.4,0.6-0.5c1.4-0.4,4.3,1.3,4.4,1.4
		c0.1,0.1,0.1,0.2,0.1,0.3c0,0.1-0.1,0.1-0.1,0.1C242.1,323,241.2,323.1,240.4,323.1z M239,321.5c-0.1,0-0.3,0-0.4,0
		c-0.2,0-0.3,0.1-0.4,0.3c-0.1,0.2-0.1,0.4,0,0.4c0.4,0.5,2.5,0.6,4,0.3C241.3,322,240.2,321.6,239,321.5L239,321.5z"/>
	<path class="st7" d="M242.9,322.9L242.9,322.9c-1.1-0.5-3.1-2.3-2.9-3.2c0-0.2,0.2-0.5,0.7-0.6c0.4,0,0.8,0.1,1.1,0.3
		c1.1,0.9,1.3,3.1,1.3,3.2c0,0.1,0,0.1-0.1,0.2C243,322.9,242.9,322.9,242.9,322.9z M240.9,319.5h-0.1c-0.4,0-0.4,0.2-0.4,0.2
		c-0.1,0.6,1.3,2,2.3,2.6c-0.1-1-0.5-1.9-1.1-2.6C241.4,319.6,241.1,319.5,240.9,319.5L240.9,319.5z"/>
	<polygon class="st16" points="252.1,322.7 243.7,322.7 242.9,303.4 251.2,303.4 	"/>
	<polygon class="st16" points="310.7,309.5 303,312.1 295,293.9 302.7,291.3 	"/>
	<path class="st14" d="M301.2,310.2l9-2.7c0.3-0.1,0.7,0,0.9,0.3l3.8,6.6c0.3,0.6,0.1,1.3-0.5,1.7c-0.1,0-0.2,0.1-0.3,0.1
		c-3.1,0.9-4.7,1.2-8.7,2.4c-2.4,0.7-8.5,3.1-12,3.8s-4.6-2.6-3.2-3.2c6-2.6,8.5-5.7,9.9-8C300.3,310.7,300.7,310.4,301.2,310.2z"/>
	<path class="st14" d="M243.8,321.7h9.1c0.3,0,0.6,0.2,0.7,0.6l1.6,7.4c0.1,0.7-0.3,1.3-0.9,1.5c-0.1,0-0.2,0-0.3,0
		c-3.3-0.1-8-0.3-12.2-0.3c-4.8,0-6.9,0.3-12.5,0.3c-3.4,0-4.4-3.5-2.9-3.8c6.5-1.4,9.7-1.6,15.4-5.1
		C242.4,321.9,243.1,321.7,243.8,321.7z"/>
	<path class="st16" d="M268,47.8c2.4,2.2,4.5,4.5,6.7,6.8s4.2,4.8,6.2,7.3c2,2.6,3.9,5.4,5.5,8.3c0.9,1.6,1.7,3.2,2.4,4.9
		c0.2,0.5,0.3,0.9,0.5,1.4c0.2,0.5,0.3,1,0.4,1.6l0.2,0.8l0.1,0.9c0.1,0.8,0.1,1.7,0,2.6c-0.2,1.6-0.8,3.1-1.7,4.4
		c-0.7,1-1.4,1.9-2.3,2.7c-1.4,1.3-2.9,2.4-4.6,3.3c-2.9,1.6-5.9,3-9,4.2c-5.9,2.2-12,3.9-18.2,5l-1.8-6c5.4-2.4,10.9-4.9,16-7.6
		c2.5-1.3,4.9-2.7,7.2-4.4c0.9-0.7,1.8-1.4,2.6-2.3c0.2-0.3,0.4-0.5,0.6-0.9c0.1-0.2,0-0.2-0.1,0.2c-0.1,0.7-0.1,0.2-0.2-0.2
		c0-0.2-0.1-0.4-0.2-0.6s-0.2-0.5-0.3-0.7c-0.5-1.1-1.1-2.2-1.8-3.2c-1.5-2.3-3.2-4.5-5-6.6c-1.8-2.2-3.8-4.3-5.8-6.5
		s-4.1-4.3-6-6.3L268,47.8z"/>
	<path class="st16" d="M254.8,95l-7.9,2.4l5.1,8.3c0,0,4.6-1.9,5.7-5.9L254.8,95z"/>
	<polygon class="st16" points="243.7,100.3 246.8,107.2 251.9,105.7 246.8,97.4 	"/>
	<path class="st7" d="M249.6,50c-0.8,8,16.2,20.4,16.2,20.4l16.3-11.2c-2.8-5.2-7-9.6-12-12.7C260.7,40.5,250.5,40.1,249.6,50z"/>
	<g class="st17">
		<path class="st3" d="M249.6,50c-0.8,8,16.2,20.4,16.2,20.4l16.3-11.2c-2.8-5.2-7-9.6-12-12.7C260.7,40.5,250.5,40.1,249.6,50z"/>
	</g>
	<path class="st7" d="M221.9,49.4c0,0-7.3,11.2,10.1,71.4l44.1-6.5c-0.6-6.1-8-32.7-8.3-61.8c0-5.7-4.7-10.4-10.5-10.3
		c-0.1,0-0.3,0-0.4,0c-1.3,0.1-2.6,0.2-3.9,0.3c-6.3,0.6-12.6,1.5-18.8,2.8C230,46.3,225.9,47.7,221.9,49.4z"/>
	<g class="st17">
		<path class="st3" d="M221.9,49.4c0,0-7.3,11.2,10.1,71.4l44.1-6.5c-0.6-6.1-8-32.7-8.3-61.8c0-5.7-4.7-10.4-10.5-10.3
			c-0.1,0-0.3,0-0.4,0c-1.3,0.1-2.6,0.2-3.9,0.3c-6.3,0.6-12.6,1.5-18.8,2.8C230,46.3,225.9,47.7,221.9,49.4z"/>
	</g>
	<path class="st8" d="M220.8,68.7l0.1-0.2l10.4,0.9c1.6,6.7-4.2,15.8-7.3,20.1C222.6,82.7,221.5,75.7,220.8,68.7z"/>
	<polygon class="st8" points="242.9,303.4 243.3,313.3 251.7,313.3 251.2,303.4 	"/>
	<polygon class="st8" points="302.7,291.3 295,293.9 299.2,303.3 306.9,300.6 	"/>
	<path class="st16" d="M247,13.3c1.8,8.1,3.3,12.7,0.5,18c-4.2,7.9-15.1,7.1-19.3-0.2c-3.8-6.6-6.2-18.7,0.7-24.1
		c4.9-3.9,12-3.1,15.9,1.7C245.9,10,246.6,11.6,247,13.3z"/>
	<path class="st14" d="M230.8,21.2l-3.1,1.9l0.3-10.5c-2,0.1-3.9-0.5-5.6-1.6c1.1-1,18.4-7.1,23.8-6c0.5-0.3,0.9-0.8,1.2-1.3
		c0,0,0.2,1.3-0.7,1.8c0.7-0.1,2.3,0.2,2.8,1.2c-0.8-0.2-1.6-0.2-2.3,0.1c0,0,6.1,0.9,3.9,9.2c-2.4,9.2-1.6,14.4-1.6,14.4
		s-4.5,3.4-8.4,2.8C237.1,28.6,231.1,23.2,230.8,21.2z"/>
	<path class="st14" d="M225,10.1c-4.9,0-6.6-2.4-7.9-4.4c3.5-0.4,10.8-2.6,16.2-3s11.3,0.6,9.5,3S225,10.1,225,10.1z"/>
	<path class="st14" d="M226,7.9c-4-0.6-7.9-4.3-4.9-7.9c1.1,2.7,8.6,2.3,13.9,1.2c7-1.5,11.9,0.9,9.4,5.7C243.1,9.5,226,7.9,226,7.9
		z"/>
	<path class="st16" d="M235.1,18.8c0.6,2,0.5,4.1-0.3,6c-1,2.5-3.2,2-4.4-0.2c-1-2-1.8-5.6-0.1-7.4S234.4,16.4,235.1,18.8z"/>
	<path class="st14" d="M247.6,118.5c0,0,7.2,61,12.4,84.8c5.7,26.1,33.8,97.5,33.8,97.5l14-4.9c0,0-18-53.7-22.8-90.3
		c-3.7-28.1-8.9-91.4-8.9-91.4L247.6,118.5z"/>
	<path class="st7" d="M290.1,296.3c-0.1,0,2.9,6,2.9,6l16.4-5.3l-1.9-4.9L290.1,296.3z"/>
	<path class="st12" d="M251.5,149.8c2.3,16.9,5.1,36.9,7.6,49.8C262.8,179.9,263.8,155.1,251.5,149.8z"/>
	<path class="st14" d="M231.9,120.8c0,0-5.9,57.3-5,82.7c0.9,26.5,13.3,107.9,13.3,107.9h14.1c0,0-2.6-79.9-2-105.9
		c0.7-28.3,11.3-89.4,11.3-89.4L231.9,120.8z"/>
	<path class="st7" d="M237.5,305.8c-0.1,0,0.8,5.9,0.8,5.9h17.2l0.5-5.2L237.5,305.8z"/>
	<path class="st16" d="M229.2,63.5c-1.6,2.5-3.1,4.7-4.8,7s-3.4,4.5-5.1,6.7c-3.6,4.5-7.4,8.7-11.6,12.6c-1.1,1-2.2,2-3.4,2.9
		l-0.9,0.7l-0.4,0.3c-0.2,0.1-0.2,0.2-0.6,0.4c-1,0.7-2.1,1.3-3.2,1.7c-1.8,0.6-3.7,0.9-5.5,0.9c-1.6,0.1-3.2,0-4.8-0.2
		c-5.8-0.8-11.4-2.4-16.8-4.7l1.7-6c5.1,0.6,10.3,0.8,15.4,0.7c1.1-0.1,2.3-0.2,3.4-0.4c0.8-0.1,1.7-0.4,2.4-0.8
		c0.2-0.1,0.4-0.3,0.3-0.3s0.1-0.1,0.2-0.2l0.3-0.3l0.7-0.6c0.9-0.8,1.8-1.8,2.6-2.6c1.7-1.9,3.4-3.8,5.1-5.8s3.3-4.1,4.9-6.2
		s3.1-4.2,4.7-6.4s3.1-4.4,4.5-6.4L229.2,63.5z"/>
	<path class="st7" d="M235,60.8c3.4,11-16.1,23.2-16.1,23.2l-12.7-16.2c2.9-5.3,6.4-10.3,10.5-14.7C225.3,43.8,232.4,52.4,235,60.8z
		"/>
	<g class="st17">
		<path class="st3" d="M235,60.8c3.4,11-16.1,23.2-16.1,23.2l-12.7-16.2c2.9-5.3,6.4-10.3,10.5-14.7C225.3,43.8,232.4,52.4,235,60.8
			z"/>
	</g>
	<path class="st16" d="M176.9,86.3l-10.3-1.9l1.1,8.9c0,0,5.3,3,9.2-1.7L176.9,86.3z"/>
	<polygon class="st16" points="162.7,86.4 164.9,92.8 167.7,93.3 166.6,84.4 	"/>
</g>
</svg>
