<?xml version="1.0" encoding="utf-8"?>
<!-- Generator: Adobe Illustrator 21.0.0, SVG Export Plug-In . SVG Version: 6.00 Build 0)  -->
<svg version="1.1" id="Capa_1" xmlns="http://www.w3.org/2000/svg" xmlns:xlink="http://www.w3.org/1999/xlink" x="0px" y="0px"
	 viewBox="0 0 350 289.4" style="enable-background:new 0 0 350 289.4;" xml:space="preserve">
<style type="text/css">
	.st0{fill:#E0E0E0;}
	.st1{fill:#227D82;}
	.st2{fill:#263238;}
	.st3{opacity:0.5;enable-background:new    ;}
	.st4{opacity:0.4;}
	.st5{fill:#EBEBEB;}
	.st6{fill:#FAFAFA;}
	.st7{fill:#F5F5F5;}
	.st8{opacity:0.3;}
	.st9{fill:#455A64;}
	.st10{opacity:0.3;enable-background:new    ;}
</style>
<title>Recurso 2</title>
<polygon class="st0" points="23.7,232.2 21.2,226.1 70.2,226.1 67.3,232.2 "/>
<polygon class="st1" points="104.7,0.3 130.6,24.4 268.4,24.4 244.9,0.3 "/>
<path class="st2" d="M104.7,0.3L244.9,0h0.1l0.1,0.1L268.4,24l0.2,0.3l0.4,0.4h-0.6l-137.8-0.1h-0.1l0,0L104.7,0.3l26,24h-0.1
	l137.8-0.1l-0.2,0.4l-0.2-0.3c-8-8.2-15.8-16.2-23.3-23.9l0.2,0.1L104.7,0.3z"/>
<polygon class="st3" points="105,1.5 129.8,32.9 244.9,32.9 244.9,24.4 130.6,24.4 "/>
<polygon class="st1" points="104.7,0.3 75.9,24.4 104.7,24.4 "/>
<g class="st4">
	<polygon points="104.7,0.3 75.9,24.4 104.7,24.4 	"/>
</g>
<g>
	<rect x="41" y="152.4" class="st5" width="104.2" height="80.3"/>
	<path class="st0" d="M119,232.2c-0.1,0-0.3-17.9-0.3-40s0.1-40,0.3-40s0.3,17.9,0.3,40S119.2,232.2,119,232.2z"/>
	<rect x="128.3" y="214.4" class="st6" width="8" height="9"/>
	<rect x="72.7" y="152.6" class="st0" width="11.8" height="17.1"/>
	<rect x="72.7" y="215.4" class="st0" width="11.8" height="17.1"/>
	<rect x="202.8" y="132.3" class="st5" width="131.3" height="101.3"/>
	<path class="st0" d="M301.2,232.8c-0.1,0-0.3-22.6-0.3-50.4s0.1-50.4,0.3-50.4s0.3,22.6,0.3,50.4S301.3,232.8,301.2,232.8z"/>
	<rect x="312.9" y="210.5" class="st6" width="10.1" height="11.4"/>
	<rect x="242.8" y="132.5" class="st0" width="14.9" height="21.6"/>
	<rect x="242.8" y="211.6" class="st0" width="14.9" height="21.6"/>
	<path class="st5" d="M58.5,136.1c5.3-2.8,11.6-3.1,17.5-2.1c3.2,0.5,6.5,1.5,8.6,3.9s2.6,6.6,0.1,8.6c-1.5,1.2-3.5,1.4-5.4,1.4
		c-4.6,0-9.8-0.9-13.4,1.9c-2.1,1.6-3.5,4.2-6,5s-5.2-0.7-6.5-2.9c-1.2-2.3-1.5-5-0.7-7.5C53.1,140.8,55.4,137.8,58.5,136.1z"/>
	<path class="st5" d="M46.4,112.6c3.3,4.6,9.6,3.1,12.5,0.3s4.2-6.9,5.3-10.9c2.6-8.9,5.2-18.3,3.3-27.4c-0.5-2.8-1.7-5.3-3.5-7.5
		c-2-2.1-4.9-3.1-7.6-2.5c-3.2,0.8-5.2,4-6.6,6.9c-4.2,8.8-6.4,18.4-6.5,28.1C43.3,104.1,43.8,108.9,46.4,112.6"/>
	<path class="st5" d="M37.4,119.3c3.5-4.2,4.2-10.3,2.6-15.6s-5.1-9.7-9.2-13.3c-4.8-4.3-10.4-7.6-16.5-9.7c-2.3-1-4.8-1.4-7.3-1.3
		c-2.6,0.1-4.9,1.6-6.3,3.8c-1.7,3.3-0.1,7.3,1.7,10.6c3.2,5.8,6.8,11.3,10.8,16.5c3.2,4.2,7,8.3,11.9,10.2s10.1,1.7,12.7-1.8"/>
	<path class="st0" d="M46.1,182.6c0.2-0.7,0.3-1.4,0.3-2.1c0.2-1.5,0.3-3.5,0.6-5.8c0.3-2.8,0.7-5.7,1.3-8.4c0.8-3.4,1.8-6.8,3.1-10
		s3-6.3,5.1-9c1.7-2.2,3.9-4,6.4-5.3c1.7-0.8,3.5-1.4,5.4-1.7c0.7,0,1.4-0.1,2.1-0.3c-0.7-0.1-1.4-0.1-2.1,0c-2,0.1-3.9,0.6-5.7,1.5
		c-2.7,1.2-5,3.1-6.8,5.4c-2.2,2.8-4,5.9-5.3,9.2s-2.3,6.7-3,10.1c-0.5,2.8-0.9,5.7-1.1,8.6c-0.2,2.4-0.3,4.4-0.3,5.8
		C46.1,181.2,46.1,181.9,46.1,182.6z"/>
	<path class="st0" d="M46.5,178.2c0.1-0.3,0.1-0.7,0.1-1c0-0.7,0-1.7,0-2.8c0-2.4,0-5.9,0.1-10.3c0.2-8.7,1-18,2.4-31.2
		c1.4-12.4,3.2-26.8,5.1-36.2c0.4-2.1,0.8-4,1.2-5.7s0.7-3.1,1-4.3L57,84c0.1-0.3,0.2-0.7,0.2-1c-0.1,0.3-0.3,0.7-0.3,1l-0.8,2.7
		c-0.4,1.2-0.7,2.6-1.2,4.3s-0.9,3.6-1.4,5.7c-2.4,11.1-4.2,22.3-5.4,33.6c-1.5,13.2-2.1,25.2-2.2,33.9c0,4.4,0,7.9,0.2,10.3
		c0.1,1.1,0.1,2.1,0.2,2.8C46.4,177.6,46.5,177.9,46.5,178.2z"/>
	<path class="st0" d="M46.6,155c0.1-1,0.1-1.9,0-2.9c-0.1-1.9-0.4-4.6-0.9-7.9c-0.6-3.9-1.5-7.7-2.6-11.5c-1.3-4.7-2.9-9.2-4.9-13.6
		c-3.3-8.2-8.1-15.7-14.2-22.1c-1-1.1-2.2-2.1-3.3-3.1c-0.5-0.4-1-0.9-1.4-1.2l-1.3-1c-0.8-0.6-1.6-1.1-2.5-1.6
		c-0.1,0.2,3.5,2.3,8.1,7.2c5.8,6.5,10.5,13.9,13.8,22c1.9,4.4,3.5,8.9,4.9,13.5c1.3,4.2,2.1,8.1,2.7,11.4s1,6,1.2,7.9
		C46.3,153.1,46.4,154.1,46.6,155z"/>
	<polygon class="st5" points="22.6,192.4 25,224.2 65.8,224.2 68.2,192.4 	"/>
	<rect x="18.7" y="179.8" class="st5" width="54.3" height="12.5"/>
	<polygon class="st0" points="18.7,223 18.7,226.4 21.2,226.4 72.1,226.4 72.1,223 	"/>
	<path class="st7" d="M67.4,202.8c0,0-0.1,0.1-0.2,0.3l-0.6,0.8l-2.4,3l-0.1,0.1l-0.1-0.1c-1.5-2.1-3.5-4.8-5.8-8.1h0.3l-5.8,8.2
		l-0.2,0.3l-0.2-0.2l-6.8-8.1h0.4l-0.4,0.5l-6.1,7.6l-0.2,0.3L39,207l-5.8-8.1h0.3l-7.1,8.1l-0.1,0.1l-0.1-0.2l-2.2-3.7l-0.6-1
		c-0.1-0.2-0.2-0.4-0.2-0.4c0.1,0.1,0.2,0.2,0.2,0.3l0.6,1l2.3,3.7h-0.2l7-8.2l0.2-0.2l0.2,0.2c1.8,2.5,3.7,5.2,5.8,8.1H39l6.1-7.8
		l0.4-0.5l0.2-0.2l0.2,0.2l6.8,8.1h-0.4c2.1-2.9,4.1-5.7,5.8-8.1l0.2-0.2l0.2,0.2l5.7,8.2H64l2.5-3l0.7-0.8
		C67.3,202.9,67.4,202.8,67.4,202.8z"/>
	<path class="st7" d="M68.7,192.2c0,0.1-10.2,0.3-22.9,0.3S23,192.3,23,192.2s10.2-0.3,22.9-0.3S68.7,192,68.7,192.2z"/>
	<path class="st2" d="M307.7,206.8c0-0.1,0.1-0.3,0.2-0.4l0.6-1.2c0.7-1.6,1.2-3.2,1.7-4.8c1.1-4.3,1.5-10.9-0.1-18.7
		c-0.9-4.3-2-8.4-3.5-12.5c-1.5-4.4-3.2-9.2-4.6-14.3c-1.6-5.3-2.3-10.9-2.3-16.4c0.2-5.8,1.9-11.6,3.8-17.4s3.8-11.4,4.5-17.1
		c0.7-5.5-0.4-11-3.1-15.8c-2.5-4.6-5.6-8.6-8-12.6c-2.2-3.8-3.9-7.9-4.9-12.2c-1.4-6.2-1.5-12.6-0.3-18.8c0.4-2.3,1.1-4.5,2-6.7
		c0,0.1-0.1,0.3-0.1,0.4l-0.4,1.3c-2.4,7.7-2.6,15.8-0.7,23.7c1,4.2,2.6,8.3,4.8,12c2.4,4,5.5,8,8.1,12.6c2.7,4.9,3.9,10.5,3.2,16.1
		c-0.6,5.8-2.6,11.5-4.4,17.2s-3.6,11.5-3.8,17.2c-0.1,5.5,0.7,11,2.2,16.3c1.4,5.1,3,9.8,4.5,14.3c1.4,4.1,2.5,8.3,3.4,12.6
		c1.6,7.9,1.1,14.5,0,18.8c-0.4,1.7-1,3.3-1.8,4.8l-0.6,1.2C307.9,206.6,307.8,206.7,307.7,206.8z"/>
	<path class="st1" d="M300,79.5c0,0-4.8-15.3,3.8-24.3c0.2-0.2,0.5-0.2,0.7,0c0.1,0.1,0.1,0.2,0.2,0.3
		C305.2,58.1,305.8,65.8,300,79.5z"/>
	<path class="st2" d="M302.9,60.4c0,1-0.1,1.9-0.3,2.8c-0.3,1.9-0.7,4.2-1.1,6.8l-1.1,6.8c-0.1,0.9-0.2,1.9-0.5,2.8
		c-0.1-0.9-0.1-1.9,0.1-2.8c0.2-1.8,0.5-4.2,0.9-6.8s0.9-5,1.3-6.7C302.3,62.2,302.5,61.3,302.9,60.4z"/>
	<path class="st1" d="M305.6,115.6c0,0,2.9-15.8,14.7-19.7c0.3-0.1,0.6,0.1,0.7,0.3c0,0.1,0,0.2,0,0.3
		C320.2,99.1,317.1,106.1,305.6,115.6z"/>
	<path class="st2" d="M317.1,100c-0.5,0.8-1,1.6-1.6,2.3l-4.1,5.4c-1.5,2-2.9,3.9-4.1,5.5c-0.5,0.8-1.1,1.5-1.8,2.2
		c0.4-0.9,0.8-1.7,1.4-2.5c1-1.5,2.4-3.5,4-5.6s3.1-4,4.3-5.3C315.8,101.3,316.4,100.6,317.1,100z"/>
	<path class="st1" d="M302.5,155.2c0,0-1.8-15.9,8.4-23.1c0.2-0.2,0.6-0.1,0.8,0.1c0.1,0.1,0.1,0.2,0.1,0.3
		C311.6,135.1,310.7,142.8,302.5,155.2z"/>
	<path class="st2" d="M308.9,136.9c-0.2,0.9-0.5,1.8-0.9,2.7l-2.4,6.4c-0.9,2.4-1.7,4.6-2.3,6.4c-0.2,0.9-0.6,1.8-1,2.6
		c0.1-0.9,0.3-1.9,0.6-2.8c0.5-1.7,1.3-4,2.2-6.5s1.8-4.8,2.5-6.4C308,138.6,308.4,137.7,308.9,136.9z"/>
	<path class="st1" d="M311.3,195c0,0-1.2-16,9.2-22.8c0.2-0.2,0.6-0.1,0.7,0.1c0.1,0.1,0.1,0.2,0.1,0.3
		C321.2,175.2,320,182.8,311.3,195z"/>
	<path class="st2" d="M318.4,176.9c-0.2,0.9-0.5,1.8-1,2.7c-0.8,1.8-1.6,4-2.6,6.3l-2.6,6.3c-0.3,0.9-0.7,1.8-1.1,2.6
		c0.1-0.9,0.4-1.9,0.7-2.8c0.5-1.7,1.4-3.9,2.4-6.4s2-4.7,2.8-6.3C317.5,178.6,317.9,177.7,318.4,176.9z"/>
	<path class="st1" d="M293.1,66.1c0,0-14.2-7.4-14.5-19.8c0-0.3,0.2-0.5,0.5-0.5c0.1,0,0.2,0,0.3,0.1
		C281.6,47.3,287.4,52.3,293.1,66.1z"/>
	<path class="st2" d="M281.6,50.5c0.7,0.7,1.3,1.4,1.8,2.2c1.1,1.6,2.5,3.5,4,5.5l4,5.5c0.6,0.7,1.2,1.5,1.6,2.3
		c-0.7-0.6-1.4-1.3-2-2.1c-1.1-1.3-2.6-3.3-4.2-5.4s-2.8-4-3.8-5.5C282.4,52.2,282,51.4,281.6,50.5z"/>
	<path class="st1" d="M308.4,99c0,0-14.6-6.6-15.7-18.9c0-0.3,0.2-0.6,0.5-0.6c0.1,0,0.2,0,0.3,0.1C295.7,80.9,301.9,85.5,308.4,99z
		"/>
	<path class="st2" d="M295.9,84.1c0.7,0.6,1.3,1.3,1.9,2.1l4.3,5.3l4.4,5.3c0.7,0.7,1.2,1.4,1.8,2.2c-0.8-0.6-1.5-1.3-2.1-2
		c-1.2-1.3-2.8-3.1-4.5-5.2s-3.2-4-4.2-5.4C296.9,85.7,296.4,84.9,295.9,84.1z"/>
	<path class="st1" d="M300,135.6c0,0-10-12.5-5.3-24c0.1-0.3,0.4-0.4,0.7-0.3c0.1,0,0.2,0.1,0.3,0.2
		C296.9,113.7,300.3,120.7,300,135.6z"/>
	<path class="st2" d="M295.6,116.7c0.3,0.9,0.6,1.8,0.7,2.8c0.4,1.9,0.9,4.2,1.5,6.7s1,4.8,1.5,6.7c0.3,0.9,0.5,1.8,0.5,2.8
		c-0.4-0.9-0.8-1.8-1-2.7c-0.5-1.7-1.1-4-1.6-6.7s-1-5-1.3-6.7C295.7,118.6,295.6,117.7,295.6,116.7z"/>
	<path class="st1" d="M309.9,178.8c0,0-14.5-6.8-15.4-19.2c0-0.3,0.2-0.6,0.5-0.6c0.1,0,0.2,0,0.3,0.1
		C297.6,160.5,303.6,165.2,309.9,178.8z"/>
	<path class="st2" d="M297.7,163.7c0.7,0.6,1.3,1.4,1.9,2.1l4.2,5.4c1.6,2,3,3.8,4.3,5.3c0.6,0.7,1.2,1.5,1.7,2.3
		c-0.7-0.6-1.4-1.3-2-2c-1.2-1.3-2.8-3.1-4.4-5.3s-3.1-4-4.1-5.5C298.7,165.4,298.1,164.6,297.7,163.7z"/>
	<path class="st2" d="M338.9,115.7c0,0.1,0,0.2,0,0.3c0,0.3,0,0.6,0,1c0,1-0.1,2.3-0.2,3.9c-0.2,3.4-0.5,8.2-0.8,13.9l0,0l0,0
		c-1,5.8-4,12.2-8,18.5c-2.9,4.6-6,8.8-8.6,12.7c-2.4,3.4-4.5,7-6.5,10.6c-1.2,2.5-2.2,5.1-3,7.8c-0.3,1-0.5,1.7-0.6,2.2
		c0,0.3-0.1,0.5-0.2,0.8c0-0.3,0-0.5,0.1-0.8c0.1-0.5,0.2-1.3,0.5-2.3c0.7-2.7,1.6-5.4,2.9-7.9c1.9-3.7,4-7.4,6.4-10.8
		c2.6-3.9,5.6-8.1,8.5-12.7c4-6.2,6.9-12.6,8-18.3l0,0c0.4-5.7,0.7-10.5,1-13.9c0.1-1.6,0.2-2.9,0.3-3.9c0-0.4,0.1-0.7,0.1-1
		S338.8,115.7,338.9,115.7z"/>
	<path class="st1" d="M330.2,152.2c0,0,6.1-14.8-1.6-24.5c-0.2-0.2-0.5-0.3-0.7-0.1c-0.1,0.1-0.2,0.2-0.2,0.3
		C327,130.3,325.7,138,330.2,152.2z"/>
	<path class="st2" d="M329.1,132.8c0.3,0.9,0.4,1.9,0.5,2.8c0.2,1.7,0.5,4.1,0.6,6.8s0.3,5.1,0.3,6.9c0.1,1,0,1.9-0.2,2.8
		c-0.2-0.9-0.3-1.9-0.3-2.8c-0.1-2-0.3-4.3-0.5-6.8s-0.3-4.9-0.5-6.8C329,134.7,329,133.8,329.1,132.8z"/>
	<g class="st8">
		<path d="M330.2,152.2c0,0,6.1-14.8-1.6-24.5c-0.2-0.2-0.5-0.3-0.7-0.1c-0.1,0.1-0.2,0.2-0.2,0.3C327,130.3,325.7,138,330.2,152.2z
			"/>
	</g>
	<path class="st1" d="M311.1,187.9c0,0,4.9-15.3-3.6-24.3c-0.2-0.2-0.5-0.2-0.8,0c-0.1,0.1-0.1,0.2-0.2,0.3
		C306.2,166.4,305.5,174,311.1,187.9z"/>
	<path class="st2" d="M308.5,168.7c0.3,0.9,0.6,1.8,0.7,2.8c0.4,1.7,0.8,4.1,1.2,6.7s0.7,5.1,0.8,6.8c0.1,0.9,0.2,1.9,0.1,2.8
		c-0.3-0.9-0.4-1.9-0.5-2.8c-0.3-1.9-0.6-4.2-1-6.8s-0.7-4.8-1-6.8C308.6,170.6,308.5,169.6,308.5,168.7z"/>
	<g class="st8">
		<path d="M311.1,187.9c0,0,4.9-15.3-3.6-24.3c-0.2-0.2-0.5-0.2-0.8,0c-0.1,0.1-0.1,0.2-0.2,0.3C306.2,166.4,305.5,174,311.1,187.9z
			"/>
	</g>
	<path class="st1" d="M338,134.1c0,0,13.1-9.2,11.8-21.5c0-0.3-0.3-0.5-0.6-0.5c-0.1,0-0.2,0.1-0.3,0.1
		C347.1,113.9,341.9,119.7,338,134.1z"/>
	<g class="st8">
		<path d="M338,134.1c0,0,13.1-9.2,11.8-21.5c0-0.3-0.3-0.5-0.6-0.5c-0.1,0-0.2,0.1-0.3,0.1C347.1,113.9,341.9,119.7,338,134.1z"/>
	</g>
	<path class="st2" d="M347.5,117.2c-0.3,0.9-0.6,1.8-1.1,2.6c-0.8,1.6-1.8,3.8-3.1,6.1c-1.3,2.3-2.5,4.4-3.4,5.9
		c-0.5,0.8-1,1.6-1.7,2.3c0.4-0.9,0.8-1.7,1.3-2.5l3.3-6l3.3-6C346.4,118.7,346.9,117.9,347.5,117.2z"/>
	<path class="st1" d="M316.5,172.7c0,0,15.8-2.5,20.1-14.1c0.1-0.3,0-0.6-0.3-0.7c-0.1,0-0.2,0-0.3,0
		C333.4,158.6,326.3,161.5,316.5,172.7z"/>
	<g class="st8">
		<path d="M316.5,172.7c0,0,15.8-2.5,20.1-14.1c0.1-0.3,0-0.6-0.3-0.7c-0.1,0-0.2,0-0.3,0C333.4,158.6,326.3,161.5,316.5,172.7z"/>
	</g>
	<path class="st2" d="M332.4,161.7c-0.6,0.7-1.4,1.3-2.1,1.9c-1.4,1.1-3.3,2.6-5.5,4.1s-4.2,2.9-5.7,3.8c-0.8,0.5-1.6,1-2.5,1.3
		c0.7-0.6,1.5-1.2,2.3-1.7l5.6-4l5.6-4C330.7,162.6,331.5,162.1,332.4,161.7z"/>
	<polygon class="st9" points="301.3,201.9 296.7,233 325.5,233 321.8,201.9 	"/>
	<path class="st2" d="M322.9,211.5c-3.9,0.3-7.7,0.4-11.6,0.3c-3.9,0.1-7.7,0-11.6-0.3c0-0.2,5.2-0.3,11.6-0.3
		S322.9,211.4,322.9,211.5z"/>
	<path class="st2" d="M323.5,214c0,0.2-5.4,0.3-12,0.3s-12-0.1-12-0.3s5.4-0.3,12-0.3S323.5,213.9,323.5,214z"/>
	<rect x="104.7" y="0.3" class="st1" width="140.2" height="108.1"/>
	<path class="st2" d="M217.3,108.2c-0.1,0-0.3-18.8-0.3-42s0.1-42,0.3-42s0.3,18.8,0.3,42S217.4,108.2,217.3,108.2z"/>
	<rect x="226.9" y="83.6" class="st7" width="12.4" height="14"/>
	<rect x="87.8" y="108.4" class="st1" width="161.2" height="124.3"/>
	<rect x="87.8" y="108.4" class="st10" width="161.2" height="124.3"/>
	<path class="st2" d="M208.7,231.9c-0.1,0-0.3-27.7-0.3-61.9s0.1-61.9,0.3-61.9s0.3,27.7,0.3,61.9S208.8,231.9,208.7,231.9z"/>
	<rect x="223" y="204.4" class="st7" width="12.4" height="14"/>
	<rect x="137" y="108.7" class="st2" width="18.3" height="26.5"/>
	<rect x="137" y="205.8" class="st2" width="18.3" height="26.5"/>
	<path class="st2" d="M247.6,108.4c-0.1,0-0.3,0-0.4,0H246h-4.7l-17.1,0.1l-56.5,0.1l-56.5-0.1l-17.1-0.1h-4.7h-1.2
		c-0.1,0-0.3,0-0.4,0c0.1,0,0.3,0,0.4,0h1.2h4.7l17.1-0.1l56.5-0.1l56.5,0.1l17.1,0.1h4.7h1.2C247.4,108.4,247.5,108.4,247.6,108.4z
		"/>
</g>
</svg>
